<svg width="11" height="10" viewBox="0 0 11 10" fill="none" xmlns="http://www.w3.org/2000/svg">
<g clip-path="url(#clip0_2_1259)">
<path d="M5.59912 0.871948C3.42191 0.871948 1.65491 2.63896 1.65491 4.81616C1.65491 6.99337 3.42191 8.76037 5.59912 8.76037C7.77633 8.76037 9.54333 6.99337 9.54333 4.81616C9.54333 2.63896 7.78027 0.871948 5.59912 0.871948Z" fill="#90A3BF"/>
<rect x="2.44373" y="1.66083" width="6.31074" height="6.31074" rx="3.15537" fill="white"/>
<path d="M5.59913 2.44958C4.29281 2.44958 3.2326 3.50979 3.2326 4.81611C3.2326 6.12244 4.29281 7.18264 5.59913 7.18264C6.90546 7.18264 7.96566 6.12244 7.96566 4.81611C7.96566 3.50979 6.90782 2.44958 5.59913 2.44958Z" fill="#90A3BF"/>
<rect x="4.02142" y="3.23846" width="3.15537" height="3.15537" rx="1.57769" fill="white"/>
<rect x="5.20471" y="6.78833" width="0.788843" height="1.57769" fill="#90A3BF"/>
<rect x="7.57117" y="4.42175" width="1.57769" height="0.788843" fill="#90A3BF"/>
<rect x="2.04932" y="4.42181" width="1.57769" height="0.788843" fill="#90A3BF"/>
</g>
<defs>
<clipPath id="clip0_2_1259">
<rect width="9.46611" height="9.46611" fill="white" transform="translate(0.866028 0.0831909)"/>
</clipPath>
</defs>
</svg>
