<svg width="11" height="11" viewBox="0 0 11 11" fill="none" xmlns="http://www.w3.org/2000/svg">
<path d="M5.65021 1.42886C3.473 1.42886 1.70599 3.19587 1.70599 5.37308C1.70599 7.55028 3.473 9.31729 5.65021 9.31729C7.82741 9.31729 9.59442 7.55028 9.59442 5.37308C9.59442 3.19587 7.83136 1.42886 5.65021 1.42886Z" fill="#90A3BF"/>
<rect x="2.49493" y="2.21771" width="6.31074" height="6.31074" rx="3.15537" fill="white"/>
<path d="M5.65022 3.0065C4.3439 3.0065 3.28369 4.0667 3.28369 5.37303C3.28369 6.67935 4.3439 7.73956 5.65022 7.73956C6.95654 7.73956 8.01675 6.67935 8.01675 5.37303C8.01675 4.0667 6.95891 3.0065 5.65022 3.0065Z" fill="#90A3BF"/>
<rect x="4.07251" y="3.79535" width="3.15537" height="3.15537" rx="1.57769" fill="white"/>
<rect x="5.2558" y="7.34518" width="0.788843" height="1.57769" fill="#90A3BF"/>
<rect x="7.62231" y="4.97864" width="1.57769" height="0.788843" fill="#90A3BF"/>
<rect x="2.10046" y="4.97876" width="1.57769" height="0.788843" fill="#90A3BF"/>
</svg>
