<svg width="10" height="11" viewBox="0 0 10 11" fill="none" xmlns="http://www.w3.org/2000/svg">
<g clip-path="url(#clip0_2_1515)">
<path d="M5.12469 1.42892C2.94749 1.42892 1.18048 3.19593 1.18048 5.37314C1.18048 7.55034 2.94749 9.31735 5.12469 9.31735C7.3019 9.31735 9.06891 7.55034 9.06891 5.37314C9.06891 3.19593 7.30584 1.42892 5.12469 1.42892Z" fill="#90A3BF"/>
<rect x="1.9693" y="2.2179" width="6.31074" height="6.31074" rx="3.15537" fill="white"/>
<path d="M5.12465 3.00656C3.81832 3.00656 2.75812 4.06677 2.75812 5.37309C2.75812 6.67941 3.81832 7.73962 5.12465 7.73962C6.43097 7.73962 7.49117 6.67941 7.49117 5.37309C7.49117 4.06677 6.43334 3.00656 5.12465 3.00656Z" fill="#90A3BF"/>
<rect x="3.547" y="3.79544" width="3.15537" height="3.15537" rx="1.57769" fill="white"/>
<rect x="4.73029" y="7.34534" width="0.788843" height="1.57769" fill="#90A3BF"/>
<rect x="7.09674" y="4.9787" width="1.57769" height="0.788843" fill="#90A3BF"/>
<rect x="1.57489" y="4.97876" width="1.57769" height="0.788843" fill="#90A3BF"/>
</g>
<defs>
<clipPath id="clip0_2_1515">
<rect width="9.46611" height="9.46611" fill="white" transform="translate(0.391602 0.640106)"/>
</clipPath>
</defs>
</svg>
