<svg width="11" height="10" viewBox="0 0 11 10" fill="none" xmlns="http://www.w3.org/2000/svg">
<g clip-path="url(#clip0_2_1316)">
<path d="M5.65021 0.87207C3.473 0.87207 1.70599 2.63908 1.70599 4.81628C1.70599 6.99349 3.473 8.7605 5.65021 8.7605C7.82741 8.7605 9.59442 6.99349 9.59442 4.81628C9.59442 2.63908 7.83136 0.87207 5.65021 0.87207Z" fill="#90A3BF"/>
<rect x="2.49487" y="1.66089" width="6.31074" height="6.31074" rx="3.15537" fill="white"/>
<path d="M5.65022 2.44971C4.3439 2.44971 3.28369 3.50991 3.28369 4.81623C3.28369 6.12256 4.3439 7.18276 5.65022 7.18276C6.95654 7.18276 8.01675 6.12256 8.01675 4.81623C8.01675 3.50991 6.95891 2.44971 5.65022 2.44971Z" fill="#90A3BF"/>
<rect x="4.07251" y="3.23859" width="3.15537" height="3.15537" rx="1.57769" fill="white"/>
<rect x="5.2558" y="6.78839" width="0.788843" height="1.57769" fill="#90A3BF"/>
<rect x="7.62231" y="4.42181" width="1.57769" height="0.788843" fill="#90A3BF"/>
<rect x="2.10046" y="4.42194" width="1.57769" height="0.788843" fill="#90A3BF"/>
</g>
<defs>
<clipPath id="clip0_2_1316">
<rect width="9.46611" height="9.46611" fill="white" transform="translate(0.917175 0.0831909)"/>
</clipPath>
</defs>
</svg>
