<svg width="10" height="11" viewBox="0 0 10 11" fill="none" xmlns="http://www.w3.org/2000/svg">
<g clip-path="url(#clip0_2_1401)">
<path d="M5.12463 1.77179C2.94743 1.77179 1.18042 3.5388 1.18042 5.716C1.18042 7.89321 2.94743 9.66022 5.12463 9.66022C7.30184 9.66022 9.06885 7.89321 9.06885 5.716C9.06885 3.5388 7.30578 1.77179 5.12463 1.77179Z" fill="#90A3BF"/>
<rect x="1.96924" y="2.56061" width="6.31074" height="6.31074" rx="3.15537" fill="white"/>
<path d="M5.12465 3.34937C3.81832 3.34937 2.75812 4.40957 2.75812 5.71589C2.75812 7.02222 3.81832 8.08242 5.12465 8.08242C6.43097 8.08242 7.49117 7.02222 7.49117 5.71589C7.49117 4.40957 6.43334 3.34937 5.12465 3.34937Z" fill="#90A3BF"/>
<rect x="3.54694" y="4.13824" width="3.15537" height="3.15537" rx="1.57769" fill="white"/>
<rect x="4.73016" y="7.68805" width="0.788843" height="1.57769" fill="#90A3BF"/>
<rect x="7.09674" y="5.3215" width="1.57769" height="0.788843" fill="#90A3BF"/>
<rect x="1.57489" y="5.32159" width="1.57769" height="0.788843" fill="#90A3BF"/>
</g>
<defs>
<clipPath id="clip0_2_1401">
<rect width="9.46611" height="9.46611" fill="white" transform="translate(0.391663 0.983002)"/>
</clipPath>
</defs>
</svg>
