<svg width="11" height="11" viewBox="0 0 11 11" fill="none" xmlns="http://www.w3.org/2000/svg">
<path d="M5.65021 1.77213C3.473 1.77213 1.70599 3.53913 1.70599 5.71634C1.70599 7.89354 3.473 9.66055 5.65021 9.66055C7.82741 9.66055 9.59442 7.89354 9.59442 5.71634C9.59442 3.53913 7.83136 1.77213 5.65021 1.77213Z" fill="#90A3BF"/>
<rect x="2.49487" y="2.56097" width="6.31074" height="6.31074" rx="3.15537" fill="white"/>
<path d="M5.65016 3.34976C4.34383 3.34976 3.28363 4.40997 3.28363 5.71629C3.28363 7.02261 4.34383 8.08282 5.65016 8.08282C6.95648 8.08282 8.01669 7.02261 8.01669 5.71629C8.01669 4.40997 6.95885 3.34976 5.65016 3.34976Z" fill="#90A3BF"/>
<rect x="4.07251" y="4.13858" width="3.15537" height="3.15537" rx="1.57769" fill="white"/>
<rect x="5.25574" y="7.68845" width="0.788843" height="1.57769" fill="#90A3BF"/>
<rect x="7.62231" y="5.3219" width="1.57769" height="0.788843" fill="#90A3BF"/>
<rect x="2.1004" y="5.3219" width="1.57769" height="0.788843" fill="#90A3BF"/>
</svg>
