<svg width="18" height="19" viewBox="0 0 18 19" fill="none" xmlns="http://www.w3.org/2000/svg">
<path d="M10.66 6.09558C9.94611 6.09558 9.30715 6.44267 8.90878 6.97514C8.51042 6.44267 7.87145 6.09558 7.15755 6.09558C5.94668 6.09558 4.96457 7.08163 4.96457 8.3004C4.96457 8.76976 5.03951 9.20362 5.16967 9.60593C5.79285 11.578 7.71369 12.7574 8.66424 13.0808C8.79834 13.1281 9.01922 13.1281 9.15332 13.0808C10.1039 12.7574 12.0247 11.578 12.6479 9.60593C12.7781 9.20362 12.853 8.76976 12.853 8.3004C12.853 7.08163 11.8709 6.09558 10.66 6.09558Z" fill="#3D5278"/>
<rect opacity="0.8" x="0.428686" y="1.12592" width="16.9601" height="16.9601" rx="8.48006" stroke="#C3D4E9" stroke-opacity="0.4" stroke-width="0.394421"/>
</svg>
