<svg width="18" height="19" viewBox="0 0 18 19" fill="none" xmlns="http://www.w3.org/2000/svg">
<path d="M12.0469 10.5882L11.6525 9.93345C11.5696 9.78751 11.4947 9.51142 11.4947 9.3497V8.35182C11.4947 7.42493 10.9504 6.62425 10.1655 6.24955C9.96038 5.88669 9.58174 5.66187 9.14787 5.66187C8.71796 5.66187 8.33142 5.89457 8.12632 6.26139C7.3572 6.64397 6.82473 7.43676 6.82473 8.35182V9.3497C6.82473 9.51142 6.74979 9.78751 6.66696 9.9295L6.2686 10.5882C6.11083 10.8524 6.07533 11.1443 6.17394 11.4125C6.2686 11.6768 6.49342 11.8819 6.78529 11.9805C7.55047 12.2408 8.35509 12.367 9.15971 12.367C9.96433 12.367 10.7689 12.2408 11.5341 11.9844C11.8102 11.8937 12.0232 11.6847 12.1258 11.4125C12.2283 11.1404 12.2007 10.8406 12.0469 10.5882Z" fill="#3D5278"/>
<path d="M10.268 12.7654C10.1024 13.2229 9.66457 13.5503 9.15182 13.5503C8.84023 13.5503 8.53258 13.4241 8.31565 13.1993C8.18943 13.081 8.09477 12.9232 8.03955 12.7615C8.09083 12.7694 8.1421 12.7733 8.19732 12.7812C8.28804 12.793 8.3827 12.8049 8.47736 12.8127C8.70218 12.8325 8.93094 12.8443 9.15971 12.8443C9.38453 12.8443 9.60935 12.8325 9.83022 12.8127C9.91305 12.8049 9.99588 12.8009 10.0748 12.7891C10.1379 12.7812 10.201 12.7733 10.268 12.7654Z" fill="#3D5278"/>
<rect opacity="0.8" x="0.671667" y="1.12592" width="16.9601" height="16.9601" rx="8.48006" stroke="#C3D4E9" stroke-opacity="0.4" stroke-width="0.394421"/>
<circle cx="14.8709" cy="3.88685" r="2.16932" fill="#FF4423"/>
</svg>
