<svg width="19" height="19" viewBox="0 0 19 19" fill="none" xmlns="http://www.w3.org/2000/svg">
<path d="M12.5896 8.50947C11.8757 8.50947 11.5838 8.00461 11.9388 7.38537C12.1439 7.02645 12.0216 6.56892 11.6627 6.36382L10.9803 5.97334C10.6688 5.78796 10.2664 5.8984 10.0811 6.20999L10.0377 6.28493C9.6827 6.90417 9.09896 6.90417 8.74004 6.28493L8.69665 6.20999C8.51916 5.8984 8.11685 5.78796 7.80526 5.97334L7.12291 6.36382C6.76398 6.56892 6.64171 7.03039 6.84681 7.38931C7.20574 8.00461 6.91386 8.50947 6.19996 8.50947C5.78976 8.50947 5.45056 8.84473 5.45056 9.25887V9.95305C5.45056 10.3632 5.78582 10.7025 6.19996 10.7025C6.91386 10.7025 7.20574 11.2073 6.84681 11.8266C6.64171 12.1855 6.76398 12.643 7.12291 12.8481L7.80526 13.2386C8.11685 13.424 8.51916 13.3135 8.70454 13.0019L8.74792 12.927C9.1029 12.3077 9.68665 12.3077 10.0456 12.927L10.089 13.0019C10.2743 13.3135 10.6766 13.424 10.9882 13.2386L11.6706 12.8481C12.0295 12.643 12.1518 12.1815 11.9467 11.8266C11.5878 11.2073 11.8796 10.7025 12.5935 10.7025C13.0037 10.7025 13.3429 10.3672 13.3429 9.95305V9.25887C13.339 8.84867 13.0037 8.50947 12.5896 8.50947ZM9.39477 10.8878C8.68876 10.8878 8.11291 10.312 8.11291 9.60596C8.11291 8.89995 8.68876 8.32409 9.39477 8.32409C10.1008 8.32409 10.6766 8.89995 10.6766 9.60596C10.6766 10.312 10.1008 10.8878 9.39477 10.8878Z" fill="#3D5278"/>
<rect opacity="0.8" x="0.914648" y="1.12592" width="16.9601" height="16.9601" rx="8.48006" stroke="#C3D4E9" stroke-opacity="0.4" stroke-width="0.394421"/>
</svg>
