<svg width="11" height="10" viewBox="0 0 11 10" fill="none" xmlns="http://www.w3.org/2000/svg">
<path d="M9.49022 3.76312L8.70138 3.3687C8.55544 3.2977 8.37401 3.35292 8.30301 3.49886C8.22807 3.64874 8.28723 3.82622 8.43317 3.89722L9.0603 4.20881V6.09809L7.58122 6.10204V2.05527C7.58122 1.26643 7.0527 0.872009 6.39796 0.872009L3.24259 0.872009C2.58785 0.872009 2.05932 1.26643 2.05932 2.05527V8.46462H1.46769C1.30598 8.46462 1.17187 8.59872 1.17187 8.76044C1.17187 8.92215 1.30598 9.05625 1.46769 9.05625L8.17285 9.05625C8.33457 9.05625 8.46867 8.92215 8.46867 8.76044C8.46867 8.59872 8.33457 8.46462 8.17285 8.46462H7.58122V6.69367L9.35612 6.68972C9.52177 6.68972 9.65193 6.55562 9.65193 6.39391V4.02738C9.65193 3.91694 9.58883 3.81439 9.49022 3.76312ZM3.04538 2.80073C3.04538 2.25248 3.38063 2.05527 3.79083 2.05527L5.85366 2.05527C6.25991 2.05527 6.59517 2.25248 6.59517 2.80073V3.28587C6.59517 3.83017 6.25991 4.02738 5.84971 4.02738L3.79083 4.02738C3.38063 4.02738 3.04538 3.83017 3.04538 3.28192V2.80073ZM3.24259 4.91483H4.42585C4.58756 4.91483 4.72167 5.04893 4.72167 5.21064C4.72167 5.37236 4.58756 5.50646 4.42585 5.50646H3.24259C3.08087 5.50646 2.94677 5.37236 2.94677 5.21064C2.94677 5.04893 3.08087 4.91483 3.24259 4.91483Z" fill="#90A3BF"/>
</svg>
