<svg width="10" height="10" viewBox="0 0 10 10" fill="none" xmlns="http://www.w3.org/2000/svg">
<path d="M3.70254 0.872009C2.66916 0.872009 1.82904 1.71213 1.82904 2.74551C1.82904 3.75917 2.62183 4.57957 3.65521 4.61507C3.68676 4.61112 3.71832 4.61112 3.74198 4.61507C3.74987 4.61507 3.75382 4.61507 3.7617 4.61507C3.76565 4.61507 3.76565 4.61507 3.76959 4.61507C4.77931 4.57957 5.5721 3.75917 5.57604 2.74551C5.57604 1.71213 4.73593 0.872009 3.70254 0.872009Z" fill="#90A3BF"/>
<path d="M5.70623 5.66423C4.60579 4.93061 2.81118 4.93061 1.70285 5.66423C1.20194 5.99949 0.925842 6.45307 0.925842 6.93821C0.925842 7.42335 1.20194 7.87299 1.69891 8.2043C2.2511 8.57506 2.97683 8.76044 3.70257 8.76044C4.4283 8.76044 5.15404 8.57506 5.70623 8.2043C6.2032 7.86905 6.47929 7.41941 6.47929 6.93032C6.47535 6.44519 6.2032 5.99555 5.70623 5.66423Z" fill="#90A3BF"/>
<path d="M8.03728 2.97823C8.10038 3.74341 7.55608 4.41393 6.80274 4.50464C6.79879 4.50464 6.79879 4.50464 6.79485 4.50464H6.78302C6.75935 4.50464 6.73569 4.50464 6.71596 4.51253C6.33338 4.53225 5.98234 4.40998 5.71808 4.18516C6.12433 3.82229 6.35704 3.27799 6.30971 2.68636C6.2821 2.36688 6.17166 2.07501 6.00601 1.82652C6.15589 1.75158 6.32943 1.70425 6.50692 1.68848C7.27999 1.62142 7.97022 2.19728 8.03728 2.97823Z" fill="#90A3BF"/>
<path d="M8.82609 6.62665C8.79453 7.00923 8.54999 7.34055 8.13979 7.56537C7.74537 7.7823 7.2484 7.88485 6.75537 7.87302C7.03936 7.61664 7.20501 7.29716 7.23657 6.95796C7.27601 6.46888 7.0433 5.99952 6.57788 5.62482C6.31362 5.41577 6.00597 5.25011 5.67072 5.12784C6.54239 4.87541 7.63888 5.04502 8.31334 5.58932C8.67621 5.88119 8.86158 6.248 8.82609 6.62665Z" fill="#90A3BF"/>
</svg>
