<svg width="11" height="11" viewBox="0 0 11 11" fill="none" xmlns="http://www.w3.org/2000/svg">
<path d="M9.63032 3.43652L7.26379 3.43652" stroke="#3D5278" stroke-width="0.591632" stroke-miterlimit="10" stroke-linecap="round" stroke-linejoin="round"/>
<path d="M3.31957 3.43652L1.74188 3.43652" stroke="#3D5278" stroke-width="0.591632" stroke-miterlimit="10" stroke-linecap="round" stroke-linejoin="round"/>
<path d="M4.89726 4.81698C5.65967 4.81698 6.27773 4.19892 6.27773 3.4365C6.27773 2.67409 5.65967 2.05603 4.89726 2.05603C4.13484 2.05603 3.51678 2.67409 3.51678 3.4365C3.51678 4.19892 4.13484 4.81698 4.89726 4.81698Z" stroke="#3D5278" stroke-width="0.591632" stroke-miterlimit="10" stroke-linecap="round" stroke-linejoin="round"/>
<path d="M9.63036 7.77515H8.05267" stroke="#3D5278" stroke-width="0.591632" stroke-miterlimit="10" stroke-linecap="round" stroke-linejoin="round"/>
<path d="M4.10841 7.77515H1.74188" stroke="#3D5278" stroke-width="0.591632" stroke-miterlimit="10" stroke-linecap="round" stroke-linejoin="round"/>
<path d="M6.47496 9.1556C7.23737 9.1556 7.85543 8.53754 7.85543 7.77513C7.85543 7.01271 7.23737 6.39465 6.47496 6.39465C5.71254 6.39465 5.09448 7.01271 5.09448 7.77513C5.09448 8.53754 5.71254 9.1556 6.47496 9.1556Z" stroke="#3D5278" stroke-width="0.591632" stroke-miterlimit="10" stroke-linecap="round" stroke-linejoin="round"/>
</svg>
